<?xml version="1.0" encoding="UTF-8" standalone="no"?>
<svg
   xmlns:dc="http://purl.org/dc/elements/1.1/"
   xmlns:cc="http://creativecommons.org/ns#"
   xmlns:rdf="http://www.w3.org/1999/02/22-rdf-syntax-ns#"
   xmlns:svg="http://www.w3.org/2000/svg"
   xmlns="http://www.w3.org/2000/svg"
   xmlns:xlink="http://www.w3.org/1999/xlink"
   width="70"
   height="70"
   viewBox="0 0 18.520834 18.520834"
   version="1.1"
   id="svg8">
  <defs
     id="defs2" />
  <metadata
     id="metadata5">
    <rdf:RDF>
      <cc:Work
         rdf:about="">
        <dc:format>image/svg+xml</dc:format>
        <dc:type
           rdf:resource="http://purl.org/dc/dcmitype/StillImage" />
        <dc:title></dc:title>
      </cc:Work>
    </rdf:RDF>
  </metadata>
  <g
     style="display:inline"
     id="layer2">
    <rect
       style="opacity:1;fill:#0323ff;fill-opacity:1;stroke:none"
       id="rect5065"
       width="19.532162"
       height="19.968264"
       x="-0.65722382"
       y="-0.59852546" />
    <ellipse
       ry="8.8324327"
       rx="8.8324318"
       cy="163.94035"
       cx="108.11324"
       id="path64"
       style="opacity:1;fill:none;fill-opacity:1;stroke:#ffffff;stroke-width:0.88004607;stroke-linecap:round;stroke-linejoin:round;stroke-miterlimit:0;stroke-dasharray:none;stroke-opacity:1"
       transform="translate(-98.84079,-154.69197)" />
    <rect
       y="3.2259915"
       x="9.3915262"
       height="4.9447036"
       width="5.0664926"
       id="rect874"
       style="opacity:1;fill:#ffffff;fill-opacity:1;stroke:none;stroke-width:0.48937514;stroke-linecap:round;stroke-linejoin:round;stroke-miterlimit:0;stroke-dasharray:none;stroke-opacity:1" />
    <rect
       y="4.3951855"
       x="9.6838236"
       height="3.5075705"
       width="4.4331794"
       id="rect879"
       style="opacity:1;fill:#0323ff;fill-opacity:1;stroke:none;stroke-width:0.50340015;stroke-linecap:round;stroke-linejoin:round;stroke-miterlimit:0;stroke-dasharray:none;stroke-opacity:1" />
    <rect
       y="2.4952459"
       x="10.292774"
       height="1.3884133"
       width="0.38973004"
       id="rect891"
       style="opacity:1;fill:#ffffff;fill-opacity:1;stroke:none;stroke-width:0.09562503;stroke-linecap:round;stroke-linejoin:round;stroke-miterlimit:0;stroke-dasharray:none;stroke-opacity:1" />
    <rect
       y="2.4830751"
       x="13.386259"
       height="1.3884133"
       width="0.38973004"
       id="rect891-9"
       style="opacity:1;fill:#ffffff;fill-opacity:1;stroke:none;stroke-width:0.09562503;stroke-linecap:round;stroke-linejoin:round;stroke-miterlimit:0;stroke-dasharray:none;stroke-opacity:1" />
    <rect
       y="5.807951"
       x="10.26842"
       height="0.60895318"
       width="0.56023699"
       id="rect910"
       style="display:inline;opacity:1;fill:#ffffff;fill-opacity:1;stroke:none;stroke-width:0.09562503;stroke-linecap:round;stroke-linejoin:round;stroke-miterlimit:0;stroke-dasharray:none;stroke-opacity:1" />
    <rect
       y="6.7322278"
       x="10.256241"
       height="0.60895318"
       width="0.56023699"
       id="rect910-6"
       style="display:inline;opacity:1;fill:#ffffff;fill-opacity:1;stroke:none;stroke-width:0.09562503;stroke-linecap:round;stroke-linejoin:round;stroke-miterlimit:0;stroke-dasharray:none;stroke-opacity:1" />
    <rect
       y="6.7078691"
       x="11.172454"
       height="0.60895318"
       width="0.56023699"
       id="rect910-6-9"
       style="display:inline;opacity:1;fill:#ffffff;fill-opacity:1;stroke:none;stroke-width:0.09562503;stroke-linecap:round;stroke-linejoin:round;stroke-miterlimit:0;stroke-dasharray:none;stroke-opacity:1" />
    <rect
       y="6.7078691"
       x="12.060067"
       height="0.60895318"
       width="0.56023699"
       id="rect910-6-9-1"
       style="display:inline;opacity:1;fill:#ffffff;fill-opacity:1;stroke:none;stroke-width:0.09562503;stroke-linecap:round;stroke-linejoin:round;stroke-miterlimit:0;stroke-dasharray:none;stroke-opacity:1" />
    <rect
       y="5.801754"
       x="11.14385"
       height="0.60895318"
       width="0.56023699"
       id="rect910-6-91"
       style="display:inline;opacity:1;fill:#ffffff;fill-opacity:1;stroke:none;stroke-width:0.09562503;stroke-linecap:round;stroke-linejoin:round;stroke-miterlimit:0;stroke-dasharray:none;stroke-opacity:1" />
    <rect
       y="5.7773952"
       x="12.060067"
       height="0.60895318"
       width="0.56023699"
       id="rect910-6-9-3"
       style="display:inline;opacity:1;fill:#ffffff;fill-opacity:1;stroke:none;stroke-width:0.09562503;stroke-linecap:round;stroke-linejoin:round;stroke-miterlimit:0;stroke-dasharray:none;stroke-opacity:1" />
    <rect
       y="5.7773952"
       x="12.947681"
       height="0.60895318"
       width="0.56023699"
       id="rect910-6-9-1-4"
       style="display:inline;opacity:1;fill:#ffffff;fill-opacity:1;stroke:none;stroke-width:0.09562503;stroke-linecap:round;stroke-linejoin:round;stroke-miterlimit:0;stroke-dasharray:none;stroke-opacity:1" />
    <rect
       y="4.8950901"
       x="11.143859"
       height="0.60895318"
       width="0.56023699"
       id="rect910-6-5"
       style="display:inline;opacity:1;fill:#ffffff;fill-opacity:1;stroke:none;stroke-width:0.09562503;stroke-linecap:round;stroke-linejoin:round;stroke-miterlimit:0;stroke-dasharray:none;stroke-opacity:1" />
    <rect
       y="4.8707309"
       x="12.060067"
       height="0.60895318"
       width="0.56023699"
       id="rect910-6-9-38"
       style="display:inline;opacity:1;fill:#ffffff;fill-opacity:1;stroke:none;stroke-width:0.09562503;stroke-linecap:round;stroke-linejoin:round;stroke-miterlimit:0;stroke-dasharray:none;stroke-opacity:1" />
    <rect
       y="4.8707309"
       x="12.947681"
       height="0.60895318"
       width="0.56023699"
       id="rect910-6-9-1-3"
       style="display:inline;opacity:1;fill:#ffffff;fill-opacity:1;stroke:none;stroke-width:0.09562503;stroke-linecap:round;stroke-linejoin:round;stroke-miterlimit:0;stroke-dasharray:none;stroke-opacity:1" />
    <g
       id="g5041"
       transform="matrix(0.05709804,0,0,0.066446,-25.633858,22.532184)" />
    <ellipse
       style="opacity:1;fill:#ffffff;fill-opacity:1;stroke:#0337ff;stroke-width:0.42829427;stroke-linecap:round;stroke-linejoin:round;stroke-miterlimit:0;stroke-dasharray:none;stroke-opacity:1"
       id="path5071"
       cx="6.0160336"
       cy="12.834326"
       rx="2.9368529"
       ry="1.7509404" />
    <use
       x="0"
       y="0"
       xlink:href="#path5071"
       id="use5073"
       transform="matrix(1.0253224,0,0,0.99860226,-0.1523403,-0.95583804)"
       width="100%"
       height="100%"
       style="fill:none;fill-opacity:1;stroke:#ffffff;stroke-opacity:1" />
    <use
       x="0"
       y="0"
       xlink:href="#use5073"
       id="use5075"
       transform="matrix(1.0284551,0,0,0.9983931,-0.17118684,-0.95513085)"
       width="100%"
       height="100%"
       style="fill:none;fill-opacity:1;stroke:#ffffff;stroke-opacity:1" />
    <use
       style="fill:#0323ff;fill-opacity:1;stroke:#ff70ff;stroke-opacity:1"
       x="0"
       y="0"
       xlink:href="#use5075"
       id="use5079"
       transform="matrix(1.0274211,0,0,0.99813067,-0.16496626,-0.9501553)"
       width="100%"
       height="100%" />
    <circle
       style="opacity:1;fill:#ffffff;fill-opacity:1;stroke:#ffffff;stroke-width:0.37816569;stroke-linecap:round;stroke-linejoin:round;stroke-miterlimit:0;stroke-dasharray:none;stroke-opacity:1"
       id="path5067"
       cx="10.051809"
       cy="12.807498"
       r="1.8024153" />
    <text
       xml:space="preserve"
       style="font-style:normal;font-weight:normal;font-size:2.06741548px;line-height:1.25;font-family:sans-serif;letter-spacing:0px;word-spacing:0px;fill:#0323ff;fill-opacity:1;stroke:none;stroke-width:0.05168539;"
       x="9.226882"
       y="13.500269"
       id="text5089"><tspan
         id="tspan5087"
         x="9.226882"
         y="13.500269"
         style="stroke-width:0.05168539;fill:#0323ff;fill-opacity:1;">€</tspan></text>
  </g>
  <g
     style="display:none"
     transform="translate(-98.84079,-154.69197)"
     id="layer1">
    
    <path
       id="path60"
       d="m 77.774251,190.4429 c -2.87791,-0.44557 -5.39116,-2.28575 -6.72966,-4.9274 -0.697174,-1.37592 -0.776735,-1.7904 -0.776735,-4.04648 0,-2.98829 0.564626,-4.42372 2.502225,-6.36132 1.9376,-1.9376 3.37303,-2.50222 6.36132,-2.50222 2.26152,0 2.66872,0.0786 4.06127,0.78421 3.06889,1.55496 4.97909,4.65456 4.97909,8.07933 0,5.53229 -4.96253,9.81536 -10.39751,8.97388 z m 4.44788,-1.07707 c 5.53375,-2.07045 7.17251,-9.43625 3.04068,-13.66709 -1.88539,-1.93056 -3.40034,-2.5641 -6.13141,-2.5641 -2.65135,0 -4.20454,0.61873 -5.96009,2.37429 -1.75556,1.75555 -2.374288,3.30874 -2.374288,5.96009 0,2.73137 0.633538,4.24602 2.564968,6.13225 2.3183,2.26405 5.71636,2.94079 8.86014,1.76456 z m -7.32407,-7.23535 v -4.36563 h 0.77535 c 0.5937,0 0.80221,-0.13947 0.89001,-0.59531 0.0631,-0.32742 0.13088,-0.007 0.1507,0.71096 l 0.036,1.30627 0.74208,-0.71096 c 0.65431,-0.62687 0.95159,-0.71096 2.51354,-0.71096 1.59507,0 1.77146,-0.0527 1.77146,-0.52917 0,-0.29104 0.11906,-0.52916 0.26458,-0.52916 0.14552,0 0.26459,0.55423 0.26459,1.23163 0,1.21487 0.007,1.22511 0.52916,0.75274 0.52703,-0.47695 0.52917,-0.46213 0.52917,3.66316 v 4.14205 h -4.23333 -4.23334 z m 7.9375,0.79375 v -3.04271 h -3.83645 -3.83646 v 3.04271 3.0427 h 3.83646 3.83645 z m -6.35,1.5875 c 0,-0.21829 0.11907,-0.39688 0.26459,-0.39688 0.14552,0 0.26458,0.17859 0.26458,0.39688 0,0.21828 -0.11906,0.39687 -0.26458,0.39687 -0.14552,0 -0.26459,-0.17859 -0.26459,-0.39687 z m 1.5875,0 c 0,-0.21829 0.11907,-0.39688 0.26459,-0.39688 0.14552,0 0.26458,0.17859 0.26458,0.39688 0,0.21828 -0.11906,0.39687 -0.26458,0.39687 -0.14552,0 -0.26459,-0.17859 -0.26459,-0.39687 z m 1.5875,0 c 0,-0.21829 0.11907,-0.39688 0.26459,-0.39688 0.14552,0 0.26458,0.17859 0.26458,0.39688 0,0.21828 -0.11906,0.39687 -0.26458,0.39687 -0.14552,0 -0.26459,-0.17859 -0.26459,-0.39687 z m -3.175,-1.5875 c 0,-0.21829 0.11907,-0.39688 0.26459,-0.39688 0.14552,0 0.26458,0.17859 0.26458,0.39688 0,0.21828 -0.11906,0.39687 -0.26458,0.39687 -0.14552,0 -0.26459,-0.17859 -0.26459,-0.39687 z m 1.5875,0 c 0,-0.21829 0.11907,-0.39688 0.26459,-0.39688 0.14552,0 0.26458,0.17859 0.26458,0.39688 0,0.21828 -0.11906,0.39687 -0.26458,0.39687 -0.14552,0 -0.26459,-0.17859 -0.26459,-0.39687 z m 1.5875,0 c 0,-0.21829 0.11907,-0.39688 0.26459,-0.39688 0.14552,0 0.26458,0.17859 0.26458,0.39688 0,0.21828 -0.11906,0.39687 -0.26458,0.39687 -0.14552,0 -0.26459,-0.17859 -0.26459,-0.39687 z m 1.32292,0 c 0,-0.21829 0.17859,-0.39688 0.39688,-0.39688 0.21828,0 0.39687,0.17859 0.39687,0.39688 0,0.21828 -0.17859,0.39687 -0.39687,0.39687 -0.21829,0 -0.39688,-0.17859 -0.39688,-0.39687 z m -2.91042,-1.5875 c 0,-0.21829 0.11907,-0.39688 0.26459,-0.39688 0.14552,0 0.26458,0.17859 0.26458,0.39688 0,0.21828 -0.11906,0.39687 -0.26458,0.39687 -0.14552,0 -0.26459,-0.17859 -0.26459,-0.39687 z m 1.5875,0 c 0,-0.21829 0.11907,-0.39688 0.26459,-0.39688 0.14552,0 0.26458,0.17859 0.26458,0.39688 0,0.21828 -0.11906,0.39687 -0.26458,0.39687 -0.14552,0 -0.26459,-0.17859 -0.26459,-0.39687 z m 1.32292,0 c 0,-0.21829 0.17859,-0.39688 0.39688,-0.39688 0.21828,0 0.39687,0.17859 0.39687,0.39688 0,0.21828 -0.17859,0.39687 -0.39687,0.39687 -0.21829,0 -0.39688,-0.17859 -0.39688,-0.39687 z"
       style="fill:#000000;stroke-width:0.26458335" />
    <path
       id="path49"
       d="m 57.008071,190.21744 c -3.65709,-0.61889 -6.759296,-3.79357 -7.342766,-7.51432 -0.962247,-6.13617 4.290086,-11.38989 10.425086,-10.42783 5.87844,0.92183 9.32303,7.35749 6.79639,12.69795 -0.99864,2.11078 -2.40761,3.52812 -4.43665,4.46299 -1.77744,0.81895 -3.63953,1.08625 -5.44206,0.78121 z m 5.19207,-1.34378 c 1.65819,-0.81244 3.24213,-2.3948 4.08473,-4.08066 0.95705,-1.91484 0.94408,-4.95434 -0.03,-7.03144 -2.5019,-5.33504 -9.43288,-6.59243 -13.56449,-2.46081 -2.870082,2.87008 -3.263975,7.25049 -0.96419,10.72254 2.17731,3.28713 6.93813,4.58274 10.47394,2.85037 z m -7.81981,-6.98817 v -4.36563 h 0.77535 c 0.5937,0 0.80221,-0.13947 0.89001,-0.59531 0.0631,-0.32742 0.13088,-0.0893 0.1507,0.52916 0.04,1.24888 0.25193,1.38001 0.96207,0.59532 0.39004,-0.43099 0.81491,-0.52917 2.28996,-0.52917 1.63469,0 1.81108,-0.0515 1.81108,-0.52917 0,-0.29104 0.11906,-0.52916 0.26458,-0.52916 0.14552,0 0.26459,0.47625 0.26459,1.05833 0,1.09395 0.19385,1.28781 0.74083,0.74083 0.24694,-0.24694 0.3175,0.60561 0.3175,3.83646 v 4.15396 h -4.23333 -4.23334 z m 7.9375,0.79375 v -3.04271 h -3.83645 -3.83646 v 2.86632 c 0,1.57647 0.0794,2.94569 0.17639,3.0427 0.097,0.097 1.82342,0.17639 3.83645,0.17639 h 3.66007 z m -6.61458,1.5875 c 0,-0.21829 0.17859,-0.39688 0.39688,-0.39688 0.21828,0 0.39687,0.17859 0.39687,0.39688 0,0.21828 -0.17859,0.39687 -0.39687,0.39687 -0.21829,0 -0.39688,-0.17859 -0.39688,-0.39687 z m 1.5875,0 c 0,-0.21829 0.17859,-0.39688 0.39688,-0.39688 0.21828,0 0.39687,0.17859 0.39687,0.39688 0,0.21828 -0.17859,0.39687 -0.39687,0.39687 -0.21829,0 -0.39688,-0.17859 -0.39688,-0.39687 z m 1.5875,0 c 0,-0.21829 0.17859,-0.39688 0.39688,-0.39688 0.21828,0 0.39687,0.17859 0.39687,0.39688 0,0.21828 -0.17859,0.39687 -0.39687,0.39687 -0.21829,0 -0.39688,-0.17859 -0.39688,-0.39687 z m -3.175,-1.5875 c 0,-0.21829 0.17859,-0.39688 0.39688,-0.39688 0.21828,0 0.39687,0.17859 0.39687,0.39688 0,0.21828 -0.17859,0.39687 -0.39687,0.39687 -0.21829,0 -0.39688,-0.17859 -0.39688,-0.39687 z m 1.5875,0 c 0,-0.21829 0.17859,-0.39688 0.39688,-0.39688 0.21828,0 0.39687,0.17859 0.39687,0.39688 0,0.21828 -0.17859,0.39687 -0.39687,0.39687 -0.21829,0 -0.39688,-0.17859 -0.39688,-0.39687 z m 1.5875,0 c 0,-0.21829 0.17859,-0.39688 0.39688,-0.39688 0.21828,0 0.39687,0.17859 0.39687,0.39688 0,0.21828 -0.17859,0.39687 -0.39687,0.39687 -0.21829,0 -0.39688,-0.17859 -0.39688,-0.39687 z m 1.5875,0 c 0,-0.21829 0.17859,-0.39688 0.39688,-0.39688 0.21828,0 0.39687,0.17859 0.39687,0.39688 0,0.21828 -0.17859,0.39687 -0.39687,0.39687 -0.21829,0 -0.39688,-0.17859 -0.39688,-0.39687 z m -3.175,-1.5875 c 0,-0.21829 0.17859,-0.39688 0.39688,-0.39688 0.21828,0 0.39687,0.17859 0.39687,0.39688 0,0.21828 -0.17859,0.39687 -0.39687,0.39687 -0.21829,0 -0.39688,-0.17859 -0.39688,-0.39687 z m 1.5875,0 c 0,-0.21829 0.17859,-0.39688 0.39688,-0.39688 0.21828,0 0.39687,0.17859 0.39687,0.39688 0,0.21828 -0.17859,0.39687 -0.39687,0.39687 -0.21829,0 -0.39688,-0.17859 -0.39688,-0.39687 z m 1.5875,0 c 0,-0.21829 0.17859,-0.39688 0.39688,-0.39688 0.21828,0 0.39687,0.17859 0.39687,0.39688 0,0.21828 -0.17859,0.39687 -0.39687,0.39687 -0.21829,0 -0.39688,-0.17859 -0.39688,-0.39687 z"
       style="fill:#000000;stroke-width:0.26458335" />
    <path
       id="path47"
       d="m 55.894527,171.16535 c -3.70431,-0.76504 -6.583653,-3.77522 -7.193129,-7.51998 -0.888625,-5.45993 3.325989,-10.50299 8.806759,-10.53787 2.26494,-0.0144 3.54393,0.36013 5.39686,1.58044 1.46681,0.96601 2.94313,2.93273 3.5357,4.71016 0.46784,1.40332 0.40979,4.48225 -0.11125,5.89986 -1.5355,4.17769 -6.12398,6.75772 -10.43494,5.86739 z m 5.29972,-1.38123 c 5.28787,-2.42087 6.54071,-9.41446 2.424,-13.53117 -2.45188,-2.45188 -6.38226,-3.15194 -9.40183,-1.6746 -1.74782,0.85513 -3.48442,2.63457 -4.27104,4.3764 -0.835095,1.84919 -0.784825,4.73905 0.11587,6.66106 2.01556,4.30102 6.87169,6.1192 11.133,4.16831 z m -7.73262,-6.94643 v -4.36563 h 0.61039 c 0.41978,0 0.70016,-0.2272 0.89789,-0.7276 0.27114,-0.68617 0.28912,-0.65603 0.31566,0.52916 0.0309,1.37754 0.22916,1.52876 0.95419,0.72761 0.39004,-0.43099 0.81491,-0.52917 2.28996,-0.52917 1.76657,0 1.81108,-0.0166 1.81108,-0.67707 0,-0.38401 0.11452,-0.6063 0.26458,-0.51355 0.14552,0.0899 0.26459,0.65119 0.26459,1.24724 0,1.06697 0.008,1.07632 0.52916,0.60484 0.5271,-0.47701 0.52917,-0.46213 0.52917,3.79545 v 4.27434 h -4.23333 -4.23334 z m 7.9375,0.79375 v -3.04271 h -3.70416 -3.70417 v 3.04271 3.0427 h 3.70417 3.70416 z m -6.61458,1.5875 c 0,-0.22049 0.23519,-0.39688 0.52917,-0.39688 0.29398,0 0.52916,0.17639 0.52916,0.39688 0,0.22048 -0.23518,0.39687 -0.52916,0.39687 -0.29398,0 -0.52917,-0.17639 -0.52917,-0.39687 z m 1.5875,0 c 0,-0.22049 0.23519,-0.39688 0.52917,-0.39688 0.29398,0 0.52916,0.17639 0.52916,0.39688 0,0.22048 -0.23518,0.39687 -0.52916,0.39687 -0.29398,0 -0.52917,-0.17639 -0.52917,-0.39687 z m 1.5875,0 c 0,-0.22049 0.23519,-0.39688 0.52917,-0.39688 0.29398,0 0.52916,0.17639 0.52916,0.39688 0,0.22048 -0.23518,0.39687 -0.52916,0.39687 -0.29398,0 -0.52917,-0.17639 -0.52917,-0.39687 z m -3.175,-1.5875 c 0,-0.22049 0.23519,-0.39688 0.52917,-0.39688 0.29398,0 0.52916,0.17639 0.52916,0.39688 0,0.22048 -0.23518,0.39687 -0.52916,0.39687 -0.29398,0 -0.52917,-0.17639 -0.52917,-0.39687 z m 1.5875,0 c 0,-0.22049 0.23519,-0.39688 0.52917,-0.39688 0.29398,0 0.52916,0.17639 0.52916,0.39688 0,0.22048 -0.23518,0.39687 -0.52916,0.39687 -0.29398,0 -0.52917,-0.17639 -0.52917,-0.39687 z m 1.5875,0 c 0,-0.22049 0.23519,-0.39688 0.52917,-0.39688 0.29398,0 0.52916,0.17639 0.52916,0.39688 0,0.22048 -0.23518,0.39687 -0.52916,0.39687 -0.29398,0 -0.52917,-0.17639 -0.52917,-0.39687 z m 1.5875,0 c 0,-0.21829 0.17859,-0.39688 0.39688,-0.39688 0.21828,0 0.39687,0.17859 0.39687,0.39688 0,0.21828 -0.17859,0.39687 -0.39687,0.39687 -0.21829,0 -0.39688,-0.17859 -0.39688,-0.39687 z m -3.175,-1.5875 c 0,-0.22049 0.23519,-0.39688 0.52917,-0.39688 0.29398,0 0.52916,0.17639 0.52916,0.39688 0,0.22048 -0.23518,0.39687 -0.52916,0.39687 -0.29398,0 -0.52917,-0.17639 -0.52917,-0.39687 z m 1.5875,0 c 0,-0.22049 0.23519,-0.39688 0.52917,-0.39688 0.29398,0 0.52916,0.17639 0.52916,0.39688 0,0.22048 -0.23518,0.39687 -0.52916,0.39687 -0.29398,0 -0.52917,-0.17639 -0.52917,-0.39687 z m 1.5875,0 c 0,-0.21829 0.17859,-0.39688 0.39688,-0.39688 0.21828,0 0.39687,0.17859 0.39687,0.39688 0,0.21828 -0.17859,0.39687 -0.39687,0.39687 -0.21829,0 -0.39688,-0.17859 -0.39688,-0.39687 z"
       style="fill:#000000;stroke-width:0.26458335" />
    <path
       id="path36"
       d="m 76.313175,171.29718 c -2.6835,-0.64962 -5.3114,-3.04749 -6.306257,-5.75423 -0.521037,-1.41761 -0.579094,-4.49654 -0.111248,-5.89986 0.891595,-2.67437 3.293255,-5.07603 5.967625,-5.96762 1.40332,-0.46785 4.48225,-0.40979 5.89986,0.11124 4.17483,1.53446 6.72596,5.99941 5.8812,10.29323 -0.415,2.10941 -1.09033,3.40718 -2.51368,4.83053 -1.36064,1.36065 -2.67302,2.06893 -4.58405,2.47398 -1.71642,0.36381 -2.43097,0.34908 -4.23345,-0.0873 z m 5.87739,-1.29952 c 1.74397,-0.80958 3.23121,-2.31586 4.08457,-4.13686 0.89753,-1.91525 0.95075,-4.81249 0.1221,-6.64697 -1.181,-2.61452 -3.51033,-4.45604 -6.32452,-5.00002 -5.57205,-1.07708 -10.766511,4.17506 -9.621938,9.72876 0.384298,1.86472 0.802138,2.70413 2.013468,4.04493 2.52578,2.79572 6.33723,3.58345 9.72632,2.01016 z m -7.78248,-6.91498 v -4.36563 h 0.66146 c 0.47837,0 0.66146,-0.14215 0.66146,-0.51355 0,-0.28246 0.11906,-0.58714 0.26458,-0.67707 0.16161,-0.0999 0.26459,0.30593 0.26459,1.04271 0,1.32641 0.20365,1.47531 0.92604,0.67708 0.39004,-0.43099 0.81491,-0.52917 2.28996,-0.52917 1.75543,0 1.81108,-0.0203 1.81108,-0.66146 0,-0.3638 0.11906,-0.66146 0.26458,-0.66146 0.14552,0 0.26459,0.55424 0.26459,1.23164 0,1.21487 0.007,1.22511 0.52916,0.75274 0.5271,-0.47701 0.52917,-0.46213 0.52917,3.79545 v 4.27434 h -4.23333 -4.23334 z m 7.9375,0.79375 v -3.04271 h -3.70416 -3.70417 v 3.04271 3.0427 h 3.70417 3.70416 z m -6.61458,1.5875 c 0,-0.22049 0.23519,-0.39688 0.52917,-0.39688 0.29398,0 0.52916,0.17639 0.52916,0.39688 0,0.22048 -0.23518,0.39687 -0.52916,0.39687 -0.29398,0 -0.52917,-0.17639 -0.52917,-0.39687 z m 1.5875,0 c 0,-0.22049 0.23519,-0.39688 0.52917,-0.39688 0.29398,0 0.52916,0.17639 0.52916,0.39688 0,0.22048 -0.23518,0.39687 -0.52916,0.39687 -0.29398,0 -0.52917,-0.17639 -0.52917,-0.39687 z m 1.5875,0 c 0,-0.22049 0.23519,-0.39688 0.52917,-0.39688 0.29398,0 0.52916,0.17639 0.52916,0.39688 0,0.22048 -0.23518,0.39687 -0.52916,0.39687 -0.29398,0 -0.52917,-0.17639 -0.52917,-0.39687 z m -3.175,-1.5875 c 0,-0.22049 0.23519,-0.39688 0.52917,-0.39688 0.29398,0 0.52916,0.17639 0.52916,0.39688 0,0.22048 -0.23518,0.39687 -0.52916,0.39687 -0.29398,0 -0.52917,-0.17639 -0.52917,-0.39687 z m 1.5875,0 c 0,-0.22049 0.23519,-0.39688 0.52917,-0.39688 0.29398,0 0.52916,0.17639 0.52916,0.39688 0,0.22048 -0.23518,0.39687 -0.52916,0.39687 -0.29398,0 -0.52917,-0.17639 -0.52917,-0.39687 z m 1.5875,0 c 0,-0.22049 0.23519,-0.39688 0.52917,-0.39688 0.29398,0 0.52916,0.17639 0.52916,0.39688 0,0.22048 -0.23518,0.39687 -0.52916,0.39687 -0.29398,0 -0.52917,-0.17639 -0.52917,-0.39687 z m 1.5875,0 c 0,-0.21829 0.17859,-0.39688 0.39688,-0.39688 0.21828,0 0.39687,0.17859 0.39687,0.39688 0,0.21828 -0.17859,0.39687 -0.39687,0.39687 -0.21829,0 -0.39688,-0.17859 -0.39688,-0.39687 z m -3.175,-1.5875 c 0,-0.22049 0.23519,-0.39688 0.52917,-0.39688 0.29398,0 0.52916,0.17639 0.52916,0.39688 0,0.22048 -0.23518,0.39687 -0.52916,0.39687 -0.29398,0 -0.52917,-0.17639 -0.52917,-0.39687 z m 1.5875,0 c 0,-0.22049 0.23519,-0.39688 0.52917,-0.39688 0.29398,0 0.52916,0.17639 0.52916,0.39688 0,0.22048 -0.23518,0.39687 -0.52916,0.39687 -0.29398,0 -0.52917,-0.17639 -0.52917,-0.39687 z m 1.5875,0 c 0,-0.21829 0.17859,-0.39688 0.39688,-0.39688 0.21828,0 0.39687,0.17859 0.39687,0.39688 0,0.21828 -0.17859,0.39687 -0.39687,0.39687 -0.21829,0 -0.39688,-0.17859 -0.39688,-0.39687 z"
       style="fill:#000000;stroke-width:0.26458335" />
  </g>
</svg>
